<?xml version="1.0" encoding="UTF-8" standalone="no"?>
<svg
   xmlns:dc="http://purl.org/dc/elements/1.1/"
   xmlns:cc="http://creativecommons.org/ns#"
   xmlns:rdf="http://www.w3.org/1999/02/22-rdf-syntax-ns#"
   xmlns:svg="http://www.w3.org/2000/svg"
   xmlns="http://www.w3.org/2000/svg"
   xmlns:sodipodi="http://sodipodi.sourceforge.net/DTD/sodipodi-0.dtd"
   xmlns:inkscape="http://www.inkscape.org/namespaces/inkscape"
   viewBox="0 0 279.19171 60.346088"
   version="1.1"
   id="svg2"
   inkscape:version="0.91 r13725"
   sodipodi:docname="Pegasystems logo.svg"
   width="279.19171"
   height="60.346088">
  <metadata
     id="metadata18">
    <rdf:RDF>
      <cc:Work
         rdf:about="">
        <dc:format>image/svg+xml</dc:format>
        <dc:type
           rdf:resource="http://purl.org/dc/dcmitype/StillImage" />
        <dc:title>Logo</dc:title>
      </cc:Work>
    </rdf:RDF>
  </metadata>
  <sodipodi:namedview
     pagecolor="#ffffff"
     bordercolor="#666666"
     borderopacity="1"
     objecttolerance="10"
     gridtolerance="10"
     guidetolerance="10"
     inkscape:pageopacity="0"
     inkscape:pageshadow="2"
     inkscape:window-width="1920"
     inkscape:window-height="1017"
     id="namedview16"
     showgrid="false"
     fit-margin-top="0"
     fit-margin-left="0"
     fit-margin-right="0"
     fit-margin-bottom="0"
     inkscape:zoom="4.0597556"
     inkscape:cx="39.982935"
     inkscape:cy="29.80944"
     inkscape:window-x="-8"
     inkscape:window-y="-8"
     inkscape:window-maximized="1"
     inkscape:current-layer="svg2" />
  <!-- Generator: Sketch 46.1 (44463) - http://www.bohemiancoding.com/sketch -->
  <title
     id="title4">Logo</title>
  <desc
     id="desc6">Created with Sketch.</desc>
  <defs
     id="defs8" />
  <g
     id="Symbols"
     transform="matrix(0.9,0,0,0.9,-0.1926,-0.09971015)"
     style="fill:none;fill-rule:evenodd;stroke:none;stroke-width:1">
    <g
       id="Logo">
      <g
         id="pega_logo_horizontal_positive_rgb">
        <path
           d="m 136.36,17.098 -0.187,-0.089 c -0.019,-0.011 -2.213,-0.999 -3.928,0.806 l -0.219,0.231 3.513,1.722 0.821,-2.67 z m 16.081,19.291 c 0,0 -1.531,2.741 -2.217,3.754 -0.689,1.021 -2.844,1.655 -4.707,0.765 -0.852,-0.405 -8.823,-5.054 -11.873,-4.788 -15.439,1.346 -19.645,-5.015 -20.141,-5.593 -0.498,-0.578 -1.426,-0.309 -0.763,0.828 3.387,5.808 13.41,8.501 13.41,8.501 2.621,6.316 2.935,10.741 2.935,10.741 -2.596,-2.023 -5.398,-3.728 -8.371,-5.144 -7.946,-5.332 -20.385,-11.935 -37.507,-16.074 0.984,-13.582 7.837,-33.216 39.885,-28.573 0,0 6.43,1.054 10.717,4.018 0,0 -1.03,1.08 -2.384,2.432 -1.354,1.349 0.144,2.215 0.144,2.215 l 6.769,5.321 c 0.079,2.815 0.195,3.604 2.313,6.152 2.118,2.543 10.353,11.168 11.43,12.322 1.248,1.334 0.36,3.123 0.36,3.123 z M 78.633,9.915 C 76.938,16.897 77.068,23.049 77.939,28.221 76.33,27.901 74.697,27.594 73.014,27.32 37.94,21.612 27.361,38.899 31.455,52.916 19.86,57.274 8.963,62.263 0.214,67.162 13.98,34.146 43.896,5.087 69.145,1.268 77.389,0.181 79.708,5.529 78.633,9.915 l 0,0 z"
           id="Fill-1"
           inkscape:connector-curvature="0"
           style="fill:#1f2555" />
        <path
           d="m 83.492,40.09 c 13.665,-1.08 26.562,0.291 37.221,5.363 -7.945,-5.332 -20.384,-11.935 -37.507,-16.074 -0.342,4.732 0.024,8.728 0.286,10.711 z M 81.52,40.262 C 66.209,41.723 48.105,46.663 31.455,52.916 27.361,38.899 37.941,21.612 73.014,27.32 c 1.683,0.274 3.316,0.581 4.924,0.901 0.832,4.945 2.338,9.007 3.582,12.041 l 0,0 z"
           id="Fill-2"
           inkscape:connector-curvature="0"
           style="fill:#00a6a7" />
        <path
           d="m 286.63,35.039 4.749,-11.593 4.75,11.593 -9.499,0 z M 287.854,14 l -15.318,36 8.017,0 3.266,-8.015 15.119,0 3.266,8.015 8.223,0 -15.319,-36 -7.254,0 z m -99.207,12.704 c 0,3.083 -2.312,5.449 -6.272,5.449 l -6.275,0 0,-11.004 6.119,0 c 3.962,0 6.428,1.903 6.428,5.452 l 0,0.103 z M 182.889,14 l -14.709,0 0,36 7.92,0 0,-10.8 6.015,0 c 8.075,0 14.558,-4.322 14.558,-12.653 l 0,-0.103 C 196.673,19.09 191.48,14 182.889,14 Z m 56.875,4.02 c -3.775,3.688 -5.689,8.356 -5.689,13.876 0,5.525 1.878,10.158 5.588,13.779 3.703,3.617 8.359,5.448 13.84,5.448 6.489,0 11.561,-1.964 15.084,-5.839 l 0.182,-0.204 0,-16.524 -15.657,0 0,6.688 8.167,0 0,6.749 c -2.115,1.259 -4.754,1.898 -7.85,1.898 -3.208,0 -5.975,-1.099 -8.226,-3.271 -2.245,-2.162 -3.384,-5.093 -3.384,-8.694 0,-3.604 1.173,-6.547 3.485,-8.746 2.32,-2.208 5.234,-3.328 8.662,-3.328 1.803,0 3.4,0.222 4.745,0.66 1.262,0.41 2.54,1.155 3.806,2.2 l 4.38,-5.529 c -2.311,-2.036 -6.47,-4.716 -13.394,-4.716 -5.341,0 -9.964,1.869 -13.739,5.553 z m -29.428,17.584 15.506,0 0,-7.048 -15.506,0 0,-7.514 19.287,0 0,-7.042 -27.157,0 0,36 27.413,0 0,-7.045 -19.543,0 0,-7.351 0,0 z"
           id="Fill-3"
           inkscape:connector-curvature="0"
           style="fill:#1f2555" />
      </g>
    </g>
  </g>
</svg>
